<svg width="21" height="21" viewBox="0 0 21 21" fill="none" xmlns="http://www.w3.org/2000/svg">
<g clip-path="url(#clip0)">
<path d="M20.4 10.2C20.4 4.56669 15.8333 0 10.2 0C4.56669 0 0 4.56669 0 10.2C0 15.291 3.72997 19.5109 8.60625 20.2761V13.1484H6.01641V10.2H8.60625V7.95281C8.60625 5.39644 10.1291 3.98438 12.4589 3.98438C13.5746 3.98438 14.7422 4.18359 14.7422 4.18359V6.69375H13.456C12.189 6.69375 11.7937 7.48007 11.7937 8.2875V10.2H14.6227L14.1704 13.1484H11.7937V20.2761C16.67 19.5109 20.4 15.291 20.4 10.2Z" fill="#EDE6E3"/>
</g>
<defs>
<clipPath id="clip0">
<rect width="20.4" height="20.4" fill="white"/>
</clipPath>
</defs>
</svg>
