<svg width="21" height="20" viewBox="0 0 21 20" fill="none" xmlns="http://www.w3.org/2000/svg">
<g clip-path="url(#clip0)">
<path d="M10.8061 1.83716C13.533 1.83716 13.8559 1.84911 14.9283 1.89693C15.925 1.94077 16.4632 2.10815 16.822 2.24763C17.2964 2.43094 17.6393 2.65411 17.9941 3.00879C18.3529 3.36745 18.5722 3.70619 18.7556 4.18043C18.8951 4.53909 19.0626 5.08107 19.1064 6.07337C19.1542 7.14936 19.1662 7.47216 19.1662 10.194C19.1662 12.9199 19.1542 13.2427 19.1064 14.3147C19.0626 15.311 18.8951 15.849 18.7556 16.2076C18.5722 16.6819 18.3489 17.0246 17.9941 17.3793C17.6353 17.7379 17.2964 17.9571 16.822 18.1404C16.4632 18.2799 15.921 18.4473 14.9283 18.4911C13.8519 18.5389 13.529 18.5509 10.8061 18.5509C8.07917 18.5509 7.75624 18.5389 6.68382 18.4911C5.68714 18.4473 5.14893 18.2799 4.79013 18.1404C4.31571 17.9571 3.97285 17.7339 3.61804 17.3793C3.25923 17.0206 3.03996 16.6819 2.85658 16.2076C2.71704 15.849 2.5496 15.307 2.50575 14.3147C2.4579 13.2387 2.44594 12.9159 2.44594 10.194C2.44594 7.46818 2.4579 7.14538 2.50575 6.07337C2.5496 5.07709 2.71704 4.53909 2.85658 4.18043C3.03996 3.70619 3.26322 3.36347 3.61804 3.00879C3.97684 2.65013 4.31571 2.43094 4.79013 2.24763C5.14893 2.10815 5.69113 1.94077 6.68382 1.89693C7.75624 1.84911 8.07917 1.83716 10.8061 1.83716ZM10.8061 0C8.03531 0 7.68847 0.0119555 6.6001 0.0597773C5.51571 0.107599 4.7702 0.282946 4.12435 0.534011C3.4506 0.797031 2.8805 1.14374 2.31438 1.71362C1.74428 2.27951 1.39744 2.84939 1.13432 3.51889C0.883154 4.16847 0.707739 4.90971 0.659898 5.99367C0.612058 7.0856 0.600098 7.43231 0.600098 10.202C0.600098 12.9717 0.612058 13.3184 0.659898 14.4063C0.707739 15.4903 0.883154 16.2355 1.13432 16.8811C1.39744 17.5546 1.74428 18.1245 2.31438 18.6904C2.8805 19.2563 3.4506 19.607 4.12036 19.866C4.7702 20.1171 5.51172 20.2924 6.59611 20.3402C7.68448 20.388 8.03133 20.4 10.8021 20.4C13.5729 20.4 13.9197 20.388 15.0081 20.3402C16.0925 20.2924 16.838 20.1171 17.4838 19.866C18.1536 19.607 18.7237 19.2563 19.2898 18.6904C19.8559 18.1245 20.2067 17.5546 20.4659 16.8851C20.717 16.2355 20.8925 15.4943 20.9403 14.4103C20.9881 13.3224 21.0001 12.9757 21.0001 10.206C21.0001 7.4363 20.9881 7.08959 20.9403 6.00164C20.8925 4.91768 20.717 4.17246 20.4659 3.52686C20.2147 2.84938 19.8679 2.27951 19.2978 1.71362C18.7317 1.14772 18.1616 0.797031 17.4918 0.537996C16.842 0.286931 16.1004 0.111584 15.016 0.0637625C13.9237 0.0119555 13.5768 0 10.8061 0Z" fill="#EDE6E3"/>
<path d="M10.806 4.96143C7.91165 4.96143 5.56348 7.30868 5.56348 10.2019C5.56348 13.0951 7.91165 15.4424 10.806 15.4424C13.7004 15.4424 16.0485 13.0951 16.0485 10.2019C16.0485 7.30868 13.7004 4.96143 10.806 4.96143ZM10.806 13.6012C8.92826 13.6012 7.40534 12.0789 7.40534 10.2019C7.40534 8.3249 8.92826 6.80257 10.806 6.80257C12.6837 6.80257 14.2067 8.3249 14.2067 10.2019C14.2067 12.0789 12.6837 13.6012 10.806 13.6012Z" fill="#EDE6E3"/>
<path d="M17.4798 4.75372C17.4798 5.43119 16.9297 5.97716 16.2559 5.97716C15.5782 5.97716 15.032 5.42721 15.032 4.75372C15.032 4.07624 15.5821 3.53027 16.2559 3.53027C16.9297 3.53027 17.4798 4.08023 17.4798 4.75372Z" fill="#EDE6E3"/>
</g>
<defs>
<clipPath id="clip0">
<rect width="20.4" height="19.6153" fill="white" transform="translate(0.600098)"/>
</clipPath>
</defs>
</svg>
