<svg width="21" height="21" viewBox="0 0 21 21" fill="none" xmlns="http://www.w3.org/2000/svg">
<path d="M20.6263 14.8401C20.4856 14.4546 20.2148 14.2463 19.9074 14.0796C19.8501 14.0483 19.798 14.0171 19.7511 13.9962C19.6574 13.9493 19.5636 13.9025 19.4698 13.8556C18.5113 13.3451 17.7612 12.7095 17.2455 11.949C17.0996 11.7354 16.9694 11.5062 16.8652 11.2718C16.8183 11.1467 16.8235 11.0738 16.8548 11.0061C16.886 10.954 16.9277 10.9123 16.9798 10.8759C17.1465 10.7665 17.3132 10.6571 17.4278 10.5841C17.6309 10.4487 17.7976 10.3445 17.9018 10.2716C18.2925 9.99548 18.5686 9.70376 18.7405 9.37557C18.9854 8.91715 19.0166 8.3806 18.8291 7.89613C18.5686 7.2085 17.9227 6.78655 17.1361 6.78655C16.9694 6.78655 16.8079 6.80218 16.6412 6.83864C16.5995 6.84906 16.5526 6.85948 16.511 6.8699C16.5162 6.40106 16.5057 5.90618 16.4641 5.4165C16.3182 3.70264 15.7139 2.80665 15.0888 2.09297C14.6877 1.64497 14.2189 1.26469 13.6927 0.967762C12.7446 0.425995 11.6663 0.149902 10.4942 0.149902C9.32212 0.149902 8.249 0.425995 7.30091 0.967762C6.77477 1.26469 6.30593 1.64497 5.90482 2.09297C5.2797 2.80665 4.68063 3.70785 4.52956 5.4165C4.48789 5.90618 4.47747 6.40106 4.48268 6.8699C4.441 6.85948 4.39933 6.84906 4.35244 6.83864C4.19096 6.80218 4.02426 6.78655 3.86277 6.78655C3.07617 6.78655 2.43021 7.21371 2.16975 7.89613C1.98221 8.3806 2.01347 8.91715 2.2583 9.37557C2.43021 9.70376 2.70631 9.99548 3.097 10.2716C3.20119 10.3445 3.36268 10.4487 3.57105 10.5841C3.68044 10.6571 3.84193 10.7612 4.00342 10.8654C4.06072 10.9019 4.10761 10.9488 4.14407 11.0061C4.17533 11.0738 4.18054 11.1467 4.12844 11.2822C4.02426 11.5114 3.89923 11.7354 3.75337 11.9438C3.24807 12.6835 2.51877 13.3138 1.59151 13.8191C1.10184 14.0796 0.591329 14.2515 0.372539 14.8401C0.21105 15.2829 0.315236 15.783 0.726771 16.2102C0.877841 16.3665 1.05496 16.5019 1.2477 16.6061C1.64882 16.8249 2.07598 16.9968 2.52398 17.1166C2.61775 17.1426 2.7011 17.1791 2.77924 17.2312C2.9303 17.3614 2.90947 17.5594 3.10742 17.8511C3.2064 18.0022 3.33663 18.1324 3.48249 18.2366C3.90444 18.5283 4.37849 18.5439 4.87858 18.5648C5.33179 18.5804 5.8423 18.6012 6.43095 18.794C6.67579 18.8721 6.92584 19.0284 7.21756 19.2107C7.92081 19.6431 8.87932 20.2318 10.489 20.2318C12.0987 20.2318 13.0624 19.6379 13.7709 19.2055C14.0626 19.0284 14.3126 18.8721 14.547 18.794C15.1305 18.6012 15.6462 18.5804 16.0994 18.5648C16.5995 18.5439 17.0736 18.5283 17.4955 18.2366C17.6726 18.1116 17.8185 17.9553 17.9227 17.7678C18.0685 17.5229 18.0633 17.351 18.1988 17.2312C18.2717 17.1791 18.355 17.1426 18.4384 17.1218C18.8864 17.002 19.324 16.8301 19.7303 16.6061C19.9335 16.4967 20.121 16.3508 20.2773 16.1789L20.2825 16.1737C20.6888 15.757 20.7878 15.2673 20.6263 14.8401ZM19.1989 15.6059C18.329 16.0852 17.7456 16.0331 17.2976 16.3248C16.9121 16.5696 17.1413 17.101 16.8652 17.2937C16.5214 17.5281 15.5108 17.2781 14.2084 17.7105C13.1301 18.0647 12.4477 19.0909 10.5098 19.0909C8.57198 19.0909 7.90519 18.0699 6.81123 17.7105C5.50891 17.2781 4.4983 17.5333 4.15449 17.2937C3.8784 17.101 4.1024 16.5696 3.72212 16.3248C3.26891 16.0331 2.69068 16.0852 1.82072 15.6059C1.26333 15.2985 1.5811 15.111 1.76342 15.0225C4.92026 13.4961 5.42556 11.1363 5.4464 10.9592C5.47244 10.7456 5.5037 10.5789 5.26928 10.3653C5.04528 10.157 4.04509 9.53706 3.76379 9.34432C3.30537 9.02134 3.10221 8.70357 3.25328 8.30767C3.35747 8.03678 3.61272 7.9326 3.8784 7.9326C3.96175 7.9326 4.04509 7.94301 4.12844 7.95864C4.63375 8.06804 5.12342 8.31808 5.40472 8.39102C5.44119 8.40143 5.47244 8.40664 5.50891 8.40664C5.65998 8.40664 5.71207 8.3285 5.70165 8.1566C5.6704 7.60441 5.59226 6.53129 5.68081 5.5259C5.80063 4.14544 6.24342 3.45781 6.77477 2.85353C7.03002 2.56181 8.22295 1.30116 10.5098 1.30116C12.7967 1.30116 13.9896 2.5566 14.2449 2.84832C14.7763 3.4526 15.219 4.14023 15.3389 5.52069C15.4274 6.52608 15.3493 7.5992 15.3128 8.15139C15.3024 8.33371 15.3545 8.40143 15.5056 8.40143C15.542 8.40143 15.5733 8.39622 15.6097 8.38581C15.891 8.31808 16.3807 8.06283 16.886 7.95343C16.9694 7.9326 17.0527 7.92739 17.1361 7.92739C17.4017 7.92739 17.657 8.03157 17.7612 8.30246C17.9123 8.69836 17.7091 9.01613 17.2507 9.33911C16.9746 9.53185 15.9744 10.1518 15.7452 10.3601C15.5108 10.5737 15.542 10.7404 15.5681 10.954C15.5889 11.1311 16.0942 13.4909 19.251 15.0172C19.4386 15.1058 19.7511 15.2985 19.1989 15.6059Z" fill="#EDE6E3"/>
</svg>
